<svg xmlns="http://www.w3.org/2000/svg" version="1.1" xmlns:xlink="http://www.w3.org/1999/xlink" xmlns:svgjs="http://svgjs.dev/svgjs" width="1500" height="477" viewBox="0 0 1500 477"><g transform="matrix(1,0,0,1,-0.9090909090909918,-0.9667510555396177)"><svg viewBox="0 0 396 126" data-background-color="#d9d9d9" preserveAspectRatio="xMidYMid meet" height="477" width="1500" xmlns="http://www.w3.org/2000/svg" xmlns:xlink="http://www.w3.org/1999/xlink"><g id="tight-bounds" transform="matrix(1,0,0,1,0.2400000000000091,0.2553682033500877)"><svg viewBox="0 0 395.52 125.48926359329984" height="125.48926359329984" width="395.52"><g><svg viewBox="0 0 569.254391071777 180.61113049365298" height="125.48926359329984" width="395.52"><g transform="matrix(1,0,0,1,173.734391071777,55.81146087447107)"><svg viewBox="0 0 395.52 68.98820874471085" height="68.98820874471085" width="395.52"><g id="textblocktransform"><svg viewBox="0 0 395.52 68.98820874471085" height="68.98820874471085" width="395.52" id="textblock"><g><svg viewBox="0 0 395.52 68.98820874471085" height="68.98820874471085" width="395.52"><g transform="matrix(1,0,0,1,0,0)"><svg width="395.52" viewBox="1.1 -36.75 211.69 37.1" height="68.98820874471085" data-palette-color="url(#170348b3-f5a9-41b6-9409-c4c3711f3c13)"><g class="wordmark-text-0" data-fill-palette-color="primary" id="text-0"><path d="M184.84 0.25L184.84 0.25Q183.44 0.25 182.36-0.93 181.29-2.1 181.29-5.3L181.29-5.3Q181.29-5.85 181.31-6.28 181.34-6.7 181.34-6.9L181.34-6.9Q181.54-8.9 181.91-11.88 182.29-14.85 182.79-18.13 183.29-21.4 183.81-24.45 184.34-27.5 184.79-29.78 185.24-32.05 185.54-32.9L185.54-32.9Q186.09-34.4 187.51-35.27 188.94-36.15 190.44-36.15L190.44-36.15Q191.74-36.15 192.81-35.4 193.89-34.65 194.29-32.85L194.29-32.85Q193.99-31.85 193.34-29.33 192.69-26.8 191.94-23.15 191.19-19.5 190.51-15.1 189.84-10.7 189.44-5.9L189.44-5.9Q189.39-5.05 189.29-3.93 189.19-2.8 189.14-1.65L189.14-1.65Q188.54-1 187.34-0.38 186.14 0.25 184.84 0.25ZM204.13 0.2L204.13 0.2Q202.54 0.2 201.11-0.53 199.69-1.25 198.81-2.8 197.94-4.35 197.94-6.75L197.94-6.75Q197.94-8.05 198.19-10.15 198.44-12.25 198.86-14.75 199.29-17.25 199.74-19.75L199.74-19.75Q198.74-19.7 197.81-19.55 196.89-19.4 195.99-19.2L195.99-19.2 195.89-19.55Q196.89-20.75 197.99-21.6 199.09-22.45 200.29-23L200.29-23Q200.94-26.3 201.39-28.73 201.84-31.15 201.84-31.6L201.84-31.6Q201.84-32.45 203.16-33 204.49-33.55 206.13-33.55L206.13-33.55Q207.59-33.55 208.86-33 210.13-32.45 210.59-31.15L210.59-31.15Q210.29-30.85 209.74-28.93 209.19-27 208.59-24.25L208.59-24.25Q209.54-24.2 210.54-24.15 211.54-24.1 212.59-24L212.59-24Q212.69-23.7 212.74-23.35 212.79-23 212.79-22.6L212.79-22.6Q212.79-21.85 212.56-20.98 212.34-20.1 212.04-19.4L212.04-19.4Q210.84-19.5 209.79-19.63 208.74-19.75 207.74-19.8L207.74-19.8Q207.34-17.65 207.01-15.5 206.69-13.35 206.51-11.6 206.34-9.85 206.34-8.85L206.34-8.85Q206.34-6.75 207.11-6.05 207.88-5.35 208.99-5.35L208.99-5.35Q209.99-5.35 210.79-5.75 211.59-6.15 211.94-6.7L211.94-6.7 212.44-6.55Q212.13-4.5 210.84-2.98 209.54-1.45 207.74-0.63 205.94 0.2 204.13 0.2Z" fill="#e83d95" data-fill-palette-color="secondary"></path></g></svg></g></svg></g></svg></g></svg></g><g><svg viewBox="0 0 157.44793070416063 180.61113049365298" height="180.61113049365298" width="157.44793070416063"><g><svg xmlns="http://www.w3.org/2000/svg" xmlns:xlink="http://www.w3.org/1999/xlink" version="1.1" x="0" y="0" viewBox="7.203 0.9081454089562165 85.59100008806261 98.18285459104378" enable-background="new 0 0 100 100" xml:space="preserve" height="180.61113049365298" width="157.44793070416063" class="icon-icon-0" data-fill-palette-color="accent" id="icon-0"></svg></g></svg></g></svg></g><defs></defs><mask id="5c21f677-bd43-4511-b3ec-d845801e09f8"><g id="SvgjsG1090"><svg viewBox="0 0 395.52 125.48926359329984" height="125.48926359329984" width="395.52"><g><svg viewBox="0 0 569.254391071777 180.61113049365298" height="125.48926359329984" width="395.52"><g transform="matrix(1,0,0,1,173.734391071777,55.81146087447107)"><svg viewBox="0 0 395.52 68.98820874471085" height="68.98820874471085" width="395.52"><g id="SvgjsG1089"><svg viewBox="0 0 395.52 68.98820874471085" height="68.98820874471085" width="395.52" id="SvgjsSvg1088"><g><svg viewBox="0 0 395.52 68.98820874471085" height="68.98820874471085" width="395.52"><g transform="matrix(1,0,0,1,0,0)"><svg width="395.52" viewBox="1.1 -36.75 211.69 37.1" height="68.98820874471085" data-palette-color="url(#170348b3-f5a9-41b6-9409-c4c3711f3c13)"><g class="wordmark-text-0" data-fill-palette-color="primary" id="SvgjsG1087"><path d="M7.1 0.2L7.1 0.2Q5.3 0.2 3.85-1.3 2.4-2.8 2.4-6.25L2.4-6.25Q2.4-9.05 3.05-11.75 3.7-14.45 4.53-17.23 5.35-20 5.93-22.98 6.5-25.95 6.3-29.25L6.3-29.25Q4.95-29.05 3.65-28.55 2.35-28.05 1.1-27.1L1.1-27.1Q1.1-30.25 1.65-32.23 2.2-34.2 3.8-35.1 5.4-36 8.55-36L8.55-36Q10.25-36 12.35-35.75 14.45-35.5 16.68-35.25 18.9-35 20.9-35L20.9-35Q22.85-35 24.4-35.38 25.95-35.75 26.8-36.75L26.8-36.75Q27.8-36.1 28.33-34.98 28.85-33.85 28.85-32.55L28.85-32.55Q28.85-31.2 28.23-29.93 27.6-28.65 26.3-27.83 25-27 22.9-27L22.9-27Q20.7-27 18.1-27.7 15.5-28.4 12.75-28.9L12.75-28.9Q13-27.8 13.13-26.7 13.25-25.6 13.25-24.45L13.25-24.45Q13.25-23.2 13.15-21.98 13.05-20.75 12.85-19.45L12.85-19.45Q13.9-20 15.4-20.45 16.9-20.9 18.48-21.2 20.05-21.5 21.3-21.5L21.3-21.5Q22.1-21.5 22.7-21.35L22.7-21.35Q23.2-20.3 23.2-18.8L23.2-18.8Q23.2-16.4 22-13.9L22-13.9 21.65-13.75Q19.8-14.75 17.38-15.3 14.95-15.85 12.3-16.05L12.3-16.05Q11.8-13.2 11.35-10.25 10.9-7.3 10.9-4.2L10.9-4.2Q10.9-3.55 10.93-2.85 10.95-2.15 11-1.45L11-1.45Q9.35 0.2 7.1 0.2ZM34.75 0.2L34.75 0.2Q32.95 0.2 31.55-1.28 30.15-2.75 30.15-5.45L30.15-5.45Q30.15-6.75 30.45-8.4 30.75-10.05 31.15-11.78 31.55-13.5 31.85-15.03 32.15-16.55 32.15-17.55L32.15-17.55Q32.15-18.6 31.77-19.23 31.4-19.85 30.8-19.85L30.8-19.85Q29.85-19.85 28.85-18.55L28.85-18.55 28.55-18.75Q28.5-19.55 28.9-20.65 29.3-21.75 30.15-22.78 31-23.8 32.32-24.5 33.65-25.2 35.45-25.2L35.45-25.2Q38.1-25.2 39.3-23.68 40.5-22.15 40.5-20L40.5-20Q40.5-19.65 40.47-19.28 40.45-18.9 40.4-18.55L40.4-18.55Q42.2-21.8 44.17-23.53 46.15-25.25 47.85-25.25L47.85-25.25Q49.45-25.25 50.2-24 50.95-22.75 50.95-21L50.95-21Q50.95-19.4 50.32-17.75 49.7-16.1 48.47-15.03 47.25-13.95 45.5-14L45.5-14 45.3-14.1Q45.25-15.4 44.45-16.15 43.65-16.9 42.65-16.9L42.65-16.9Q41.3-16.9 40.12-15.55 38.95-14.2 38.95-11.65L38.95-11.65Q38.95-10.1 39.3-8.3 39.65-6.5 39.65-5.25L39.65-5.25Q39.65-3.75 38.95-2.5 38.25-1.25 37.15-0.53 36.05 0.2 34.75 0.2ZM63.2 0.35L63.2 0.35Q59.55 0.35 57.15-1.13 54.75-2.6 53.55-5.03 52.35-7.45 52.35-10.25L52.35-10.25Q52.35-12.9 53.37-15.58 54.4-18.25 56.37-20.45 58.35-22.65 61.17-24 64-25.35 67.55-25.35L67.55-25.35Q71.95-25.35 73.97-23.38 76-21.4 76-18.6L76-18.6Q76-16.2 74.72-14.18 73.45-12.15 71.35-10.93 69.25-9.7 66.75-9.7L66.75-9.7Q65.45-9.7 64.1-10.1 62.75-10.5 61.45-11.35L61.45-11.35Q61.7-8.25 63.25-6.85 64.8-5.45 66.95-5.45L66.95-5.45Q68.45-5.45 69.95-6.03 71.45-6.6 72.72-7.53 74-8.45 74.7-9.5L74.7-9.5 75.05-9.25Q75.05-6.65 73.97-4.83 72.9-3 71.15-1.85 69.4-0.7 67.32-0.18 65.25 0.35 63.2 0.35ZM64.35-13.15L64.35-13.15Q65.95-13.15 66.95-14.08 67.95-15 68.45-16.25 68.95-17.5 68.95-18.45L68.95-18.45Q68.95-19.6 68.3-20.38 67.65-21.15 66.5-21.15L66.5-21.15Q65.6-21.15 64.52-20.5 63.45-19.85 62.6-18.28 61.75-16.7 61.5-13.9L61.5-13.9Q63.1-13.15 64.35-13.15ZM89.24 0.35L89.24 0.35Q85.59 0.35 83.19-1.13 80.79-2.6 79.59-5.03 78.39-7.45 78.39-10.25L78.39-10.25Q78.39-12.9 79.42-15.58 80.44-18.25 82.42-20.45 84.39-22.65 87.22-24 90.04-25.35 93.59-25.35L93.59-25.35Q97.99-25.35 100.02-23.38 102.04-21.4 102.04-18.6L102.04-18.6Q102.04-16.2 100.77-14.18 99.49-12.15 97.39-10.93 95.29-9.7 92.79-9.7L92.79-9.7Q91.49-9.7 90.14-10.1 88.79-10.5 87.49-11.35L87.49-11.35Q87.74-8.25 89.29-6.85 90.84-5.45 92.99-5.45L92.99-5.45Q94.49-5.45 95.99-6.03 97.49-6.6 98.77-7.53 100.04-8.45 100.74-9.5L100.74-9.5 101.09-9.25Q101.09-6.65 100.02-4.83 98.94-3 97.19-1.85 95.44-0.7 93.37-0.18 91.29 0.35 89.24 0.35ZM90.39-13.15L90.39-13.15Q91.99-13.15 92.99-14.08 93.99-15 94.49-16.25 94.99-17.5 94.99-18.45L94.99-18.45Q94.99-19.6 94.34-20.38 93.69-21.15 92.54-21.15L92.54-21.15Q91.64-21.15 90.57-20.5 89.49-19.85 88.64-18.28 87.79-16.7 87.54-13.9L87.54-13.9Q89.14-13.15 90.39-13.15ZM117.69 0.2L117.69 0.2Q115.69 0.2 114.04-0.68 112.39-1.55 111.34-3.25L111.34-3.25Q111.29-2.3 110.64-1.5 109.99-0.7 108.19-0.7L108.19-0.7Q106.19-0.7 105.24-1.8 104.29-2.9 104.29-4.7L104.29-4.7Q104.29-5.8 104.59-7.88 104.89-9.95 105.32-12.55 105.74-15.15 106.17-17.95 106.59-20.75 106.89-23.4 107.19-26.05 107.19-28.15L107.19-28.15Q107.19-29.55 107.04-30.6 106.89-31.65 106.49-32.25L106.49-32.25 106.49-32.55Q107.64-33.8 108.89-34.43 110.14-35.05 111.29-35.05L111.29-35.05Q112.99-35.05 114.19-33.7 115.39-32.35 115.39-29.4L115.39-29.4Q115.39-27.95 115.09-25.33 114.79-22.7 114.34-20.1L114.34-20.1Q116.14-22.65 118.17-24 120.19-25.35 122.09-25.35L122.09-25.35Q124.64-25.35 126.44-22.93 128.24-20.5 128.24-15.6L128.24-15.6Q128.24-12.7 127.57-9.88 126.89-7.05 125.54-4.78 124.19-2.5 122.22-1.15 120.24 0.2 117.69 0.2ZM115.19-4.85L115.19-4.85Q116.79-4.85 117.92-6.25 119.04-7.65 119.62-9.83 120.19-12 120.19-14.3L120.19-14.3Q120.19-15.8 119.94-17.18 119.69-18.55 119.19-19.43 118.69-20.3 117.89-20.3L117.89-20.3Q116.49-20.3 114.72-17.03 112.94-13.75 111.94-7.75L111.94-7.75Q112.84-4.85 115.19-4.85ZM140.39-26.75L140.39-26.75Q138.39-26.75 137.11-27.98 135.84-29.2 135.84-31.05L135.84-31.05Q135.84-33.05 137.34-34.5 138.84-35.95 140.99-35.95L140.99-35.95Q142.99-35.95 144.26-34.7 145.54-33.45 145.54-31.6L145.54-31.6Q145.54-29.6 144.04-28.18 142.54-26.75 140.39-26.75ZM136.89 0.2L136.89 0.2Q134.94 0.2 133.39-1.18 131.84-2.55 131.84-5.6L131.84-5.6Q131.84-7.35 132.31-8.88 132.79-10.4 133.41-11.85 134.04-13.3 134.51-14.68 134.99-16.05 134.99-17.4L134.99-17.4Q134.99-18.6 134.59-19.13 134.19-19.65 133.64-19.65L133.64-19.65Q132.79-19.65 131.99-18.55L131.99-18.55 131.64-18.75Q131.84-20.75 132.91-22.18 133.99-23.6 135.56-24.4 137.14-25.2 138.69-25.2L138.69-25.2Q140.59-25.2 141.99-23.98 143.39-22.75 143.39-20L143.39-20Q143.39-18.35 142.91-16.53 142.44-14.7 141.81-12.9 141.19-11.1 140.71-9.55 140.24-8 140.24-6.9L140.24-6.9Q140.24-5.95 140.61-5.55 140.99-5.15 141.44-5.15L141.44-5.15Q141.89-5.15 142.31-5.43 142.74-5.7 142.94-6.05L142.94-6.05 143.29-5.95Q143.29-4.1 142.31-2.73 141.34-1.35 139.89-0.58 138.44 0.2 136.89 0.2ZM157.99 0.35L157.99 0.35Q154.34 0.35 151.94-1.13 149.54-2.6 148.34-5.03 147.14-7.45 147.14-10.25L147.14-10.25Q147.14-12.9 148.16-15.58 149.19-18.25 151.16-20.45 153.14-22.65 155.96-24 158.79-25.35 162.34-25.35L162.34-25.35Q166.74-25.35 168.76-23.38 170.79-21.4 170.79-18.6L170.79-18.6Q170.79-16.2 169.51-14.18 168.24-12.15 166.14-10.93 164.04-9.7 161.54-9.7L161.54-9.7Q160.24-9.7 158.89-10.1 157.54-10.5 156.24-11.35L156.24-11.35Q156.49-8.25 158.04-6.85 159.59-5.45 161.74-5.45L161.74-5.45Q163.24-5.45 164.74-6.03 166.24-6.6 167.51-7.53 168.79-8.45 169.49-9.5L169.49-9.5 169.84-9.25Q169.84-6.65 168.76-4.83 167.69-3 165.94-1.85 164.19-0.7 162.11-0.18 160.04 0.35 157.99 0.35ZM159.14-13.15L159.14-13.15Q160.74-13.15 161.74-14.08 162.74-15 163.24-16.25 163.74-17.5 163.74-18.45L163.74-18.45Q163.74-19.6 163.09-20.38 162.44-21.15 161.29-21.15L161.29-21.15Q160.39-21.15 159.31-20.5 158.24-19.85 157.39-18.28 156.54-16.7 156.29-13.9L156.29-13.9Q157.89-13.15 159.14-13.15Z" fill="white"></path><path d="M184.84 0.25L184.84 0.25Q183.44 0.25 182.36-0.93 181.29-2.1 181.29-5.3L181.29-5.3Q181.29-5.85 181.31-6.28 181.34-6.7 181.34-6.9L181.34-6.9Q181.54-8.9 181.91-11.88 182.29-14.85 182.79-18.13 183.29-21.4 183.81-24.45 184.34-27.5 184.79-29.78 185.24-32.05 185.54-32.9L185.54-32.9Q186.09-34.4 187.51-35.27 188.94-36.15 190.44-36.15L190.44-36.15Q191.74-36.15 192.81-35.4 193.89-34.65 194.29-32.85L194.29-32.85Q193.99-31.85 193.34-29.33 192.69-26.8 191.94-23.15 191.19-19.5 190.51-15.1 189.84-10.7 189.44-5.9L189.44-5.9Q189.39-5.05 189.29-3.93 189.19-2.8 189.14-1.65L189.14-1.65Q188.54-1 187.34-0.38 186.14 0.25 184.84 0.25ZM204.13 0.2L204.13 0.2Q202.54 0.2 201.11-0.53 199.69-1.25 198.81-2.8 197.94-4.35 197.94-6.75L197.94-6.75Q197.94-8.05 198.19-10.15 198.44-12.25 198.86-14.75 199.29-17.25 199.74-19.75L199.74-19.75Q198.74-19.7 197.81-19.55 196.89-19.4 195.99-19.2L195.99-19.2 195.89-19.55Q196.89-20.75 197.99-21.6 199.09-22.45 200.29-23L200.29-23Q200.94-26.3 201.39-28.73 201.84-31.15 201.84-31.6L201.84-31.6Q201.84-32.45 203.16-33 204.49-33.55 206.13-33.55L206.13-33.55Q207.59-33.55 208.86-33 210.13-32.45 210.59-31.15L210.59-31.15Q210.29-30.85 209.74-28.93 209.19-27 208.59-24.25L208.59-24.25Q209.54-24.2 210.54-24.15 211.54-24.1 212.59-24L212.59-24Q212.69-23.7 212.74-23.35 212.79-23 212.79-22.6L212.79-22.6Q212.79-21.85 212.56-20.98 212.34-20.1 212.04-19.4L212.04-19.4Q210.84-19.5 209.79-19.63 208.74-19.75 207.74-19.8L207.74-19.8Q207.34-17.65 207.01-15.5 206.69-13.35 206.51-11.6 206.34-9.85 206.34-8.85L206.34-8.85Q206.34-6.75 207.11-6.05 207.88-5.35 208.99-5.35L208.99-5.35Q209.99-5.35 210.79-5.75 211.59-6.15 211.94-6.7L211.94-6.7 212.44-6.55Q212.13-4.5 210.84-2.98 209.54-1.45 207.74-0.63 205.94 0.2 204.13 0.2Z" fill="black"></path></g></svg></g></svg></g></svg></g></svg></g><g><svg viewBox="0 0 157.44793070416063 180.61113049365298" height="180.61113049365298" width="157.44793070416063"><g><svg xmlns="http://www.w3.org/2000/svg" xmlns:xlink="http://www.w3.org/1999/xlink" version="1.1" x="0" y="0" viewBox="7.203 0.9081454089562165 85.59100008806261 98.18285459104378" enable-background="new 0 0 100 100" xml:space="preserve" height="180.61113049365298" width="157.44793070416063" class="icon-icon-0" data-fill-palette-color="accent" id="SvgjsSvg1086"><g fill="black"><path d="M84.279 44.348V58.749C84.279 61.081 83.689 63.491 81.834 65.653 79.908 67.897 71.549 73.11 68.559 74.878 66.508 76.089 65.057 73.505 66.545 72.369 68.076 71.2 76.147 66.193 78.668 64.462 83.293 61.283 78.844 54.314 73.213 57.61 70.777 59.036 68.172 60.471 62.859 63.567 57.744 66.546 54.338 70.355 53.304 80.413 52.79 85.419 55.835 99.091 55.835 99.091H73.021C73.021 87.134 87.07 77.218 90.392 71.177 92.496 67.351 92.794 65.747 92.794 62.408V44.348C92.795 37.778 84.279 37.922 84.279 44.348" fill="black"></path><path d="M37.139 63.567C31.826 60.472 29.222 59.037 26.785 57.61 21.154 54.312 16.705 61.283 21.329 64.461 23.851 66.194 31.921 71.199 33.453 72.368 34.94 73.504 33.49 76.088 31.44 74.877 28.45 73.11 20.089 67.898 18.163 65.654 16.308 63.492 15.719 61.081 15.719 58.748V44.348C15.719 37.922 7.203 37.778 7.203 44.348V62.407C7.203 65.748 7.502 67.35 9.605 71.177 12.926 77.219 26.977 87.135 26.977 99.09L44.162 99.091S47.206 85.419 46.692 80.413C45.66 70.355 42.254 66.547 37.139 63.567" fill="black"></path><path d="M21.378 44.062C21.378 45.597 22.302 47.371 23.479 48.104L46.78 61.644V37.288L21.378 22.666z" fill="black"></path><path d="M53.246 61.645L76.547 48.105C77.725 47.372 78.649 45.598 78.649 44.063V22.666L53.246 37.288z" fill="black"></path><path d="M52.263 1.342C51.037 0.692 49.04 0.781 47.712 1.551L22.572 15.81 50.013 31.603 77.4 15.843z" fill="black"></path></g></svg></g></svg></g></svg></g><defs><mask></mask></defs></svg><rect width="395.52" height="125.48926359329984" fill="black" stroke="none" visibility="hidden"></rect></g></mask><linearGradient x1="0" x2="1" y1="0.578" y2="0.595" id="170348b3-f5a9-41b6-9409-c4c3711f3c13"><stop stop-color="#6ee2f5" offset="0"></stop><stop stop-color="#6454f0" offset="1"></stop></linearGradient><rect width="395.52" height="125.48926359329984" fill="url(#170348b3-f5a9-41b6-9409-c4c3711f3c13)" mask="url(#5c21f677-bd43-4511-b3ec-d845801e09f8)" data-fill-palette-color="primary"></rect><mask id="12d14c86-071b-4db4-bb70-48ab4e58091b"><g id="SvgjsG1100"><svg viewBox="0 0 395.52 125.48926359329984" height="125.48926359329984" width="395.52"><g><svg viewBox="0 0 569.254391071777 180.61113049365298" height="125.48926359329984" width="395.52"><g transform="matrix(1,0,0,1,173.734391071777,55.81146087447107)"><svg viewBox="0 0 395.52 68.98820874471085" height="68.98820874471085" width="395.52"><g id="SvgjsG1099"><svg viewBox="0 0 395.52 68.98820874471085" height="68.98820874471085" width="395.52" id="SvgjsSvg1098"><g><svg viewBox="0 0 395.52 68.98820874471085" height="68.98820874471085" width="395.52"><g transform="matrix(1,0,0,1,0,0)"><svg width="395.52" viewBox="1.1 -36.75 211.69 37.1" height="68.98820874471085" data-palette-color="url(#170348b3-f5a9-41b6-9409-c4c3711f3c13)"><g class="wordmark-text-0" data-fill-palette-color="primary" id="SvgjsG1097"><path d="M184.84 0.25L184.84 0.25Q183.44 0.25 182.36-0.93 181.29-2.1 181.29-5.3L181.29-5.3Q181.29-5.85 181.31-6.28 181.34-6.7 181.34-6.9L181.34-6.9Q181.54-8.9 181.91-11.88 182.29-14.85 182.79-18.13 183.29-21.4 183.81-24.45 184.34-27.5 184.79-29.78 185.24-32.05 185.54-32.9L185.54-32.9Q186.09-34.4 187.51-35.27 188.94-36.15 190.44-36.15L190.44-36.15Q191.74-36.15 192.81-35.4 193.89-34.65 194.29-32.85L194.29-32.85Q193.99-31.85 193.34-29.33 192.69-26.8 191.94-23.15 191.19-19.5 190.51-15.1 189.84-10.7 189.44-5.9L189.44-5.9Q189.39-5.05 189.29-3.93 189.19-2.8 189.14-1.65L189.14-1.65Q188.54-1 187.34-0.38 186.14 0.25 184.84 0.25ZM204.13 0.2L204.13 0.2Q202.54 0.2 201.11-0.53 199.69-1.25 198.81-2.8 197.94-4.35 197.94-6.75L197.94-6.75Q197.94-8.05 198.19-10.15 198.44-12.25 198.86-14.75 199.29-17.25 199.74-19.75L199.74-19.75Q198.74-19.7 197.81-19.55 196.89-19.4 195.99-19.2L195.99-19.2 195.89-19.55Q196.89-20.75 197.99-21.6 199.09-22.45 200.29-23L200.29-23Q200.94-26.3 201.39-28.73 201.84-31.15 201.84-31.6L201.84-31.6Q201.84-32.45 203.16-33 204.49-33.55 206.13-33.55L206.13-33.55Q207.59-33.55 208.86-33 210.13-32.45 210.59-31.15L210.59-31.15Q210.29-30.85 209.74-28.93 209.19-27 208.59-24.25L208.59-24.25Q209.54-24.2 210.54-24.15 211.54-24.1 212.59-24L212.59-24Q212.69-23.7 212.74-23.35 212.79-23 212.79-22.6L212.79-22.6Q212.79-21.85 212.56-20.98 212.34-20.1 212.04-19.4L212.04-19.4Q210.84-19.5 209.79-19.63 208.74-19.75 207.74-19.8L207.74-19.8Q207.34-17.65 207.01-15.5 206.69-13.35 206.51-11.6 206.34-9.85 206.34-8.85L206.34-8.85Q206.34-6.75 207.11-6.05 207.88-5.35 208.99-5.35L208.99-5.35Q209.99-5.35 210.79-5.75 211.59-6.15 211.94-6.7L211.94-6.7 212.44-6.55Q212.13-4.5 210.84-2.98 209.54-1.45 207.74-0.63 205.94 0.2 204.13 0.2Z" fill="black"></path></g></svg></g></svg></g></svg></g></svg></g><g><svg viewBox="0 0 157.44793070416063 180.61113049365298" height="180.61113049365298" width="157.44793070416063"><g><svg xmlns="http://www.w3.org/2000/svg" xmlns:xlink="http://www.w3.org/1999/xlink" version="1.1" x="0" y="0" viewBox="7.203 0.9081454089562165 85.59100008806261 98.18285459104378" enable-background="new 0 0 100 100" xml:space="preserve" height="180.61113049365298" width="157.44793070416063" class="icon-icon-0" data-fill-palette-color="accent" id="SvgjsSvg1096"><g fill="white"><path d="M84.279 44.348V58.749C84.279 61.081 83.689 63.491 81.834 65.653 79.908 67.897 71.549 73.11 68.559 74.878 66.508 76.089 65.057 73.505 66.545 72.369 68.076 71.2 76.147 66.193 78.668 64.462 83.293 61.283 78.844 54.314 73.213 57.61 70.777 59.036 68.172 60.471 62.859 63.567 57.744 66.546 54.338 70.355 53.304 80.413 52.79 85.419 55.835 99.091 55.835 99.091H73.021C73.021 87.134 87.07 77.218 90.392 71.177 92.496 67.351 92.794 65.747 92.794 62.408V44.348C92.795 37.778 84.279 37.922 84.279 44.348" fill="white"></path><path d="M37.139 63.567C31.826 60.472 29.222 59.037 26.785 57.61 21.154 54.312 16.705 61.283 21.329 64.461 23.851 66.194 31.921 71.199 33.453 72.368 34.94 73.504 33.49 76.088 31.44 74.877 28.45 73.11 20.089 67.898 18.163 65.654 16.308 63.492 15.719 61.081 15.719 58.748V44.348C15.719 37.922 7.203 37.778 7.203 44.348V62.407C7.203 65.748 7.502 67.35 9.605 71.177 12.926 77.219 26.977 87.135 26.977 99.09L44.162 99.091S47.206 85.419 46.692 80.413C45.66 70.355 42.254 66.547 37.139 63.567" fill="white"></path><path d="M21.378 44.062C21.378 45.597 22.302 47.371 23.479 48.104L46.78 61.644V37.288L21.378 22.666z" fill="white"></path><path d="M53.246 61.645L76.547 48.105C77.725 47.372 78.649 45.598 78.649 44.063V22.666L53.246 37.288z" fill="white"></path><path d="M52.263 1.342C51.037 0.692 49.04 0.781 47.712 1.551L22.572 15.81 50.013 31.603 77.4 15.843z" fill="white"></path></g></svg></g></svg></g></svg></g><defs><mask></mask></defs><mask><g id="SvgjsG1095"><svg viewBox="0 0 395.52 125.48926359329984" height="125.48926359329984" width="395.52"><g><svg viewBox="0 0 569.254391071777 180.61113049365298" height="125.48926359329984" width="395.52"><g transform="matrix(1,0,0,1,173.734391071777,55.81146087447107)"><svg viewBox="0 0 395.52 68.98820874471085" height="68.98820874471085" width="395.52"><g id="SvgjsG1094"><svg viewBox="0 0 395.52 68.98820874471085" height="68.98820874471085" width="395.52" id="SvgjsSvg1093"><g><svg viewBox="0 0 395.52 68.98820874471085" height="68.98820874471085" width="395.52"><g transform="matrix(1,0,0,1,0,0)"><svg width="395.52" viewBox="1.1 -36.75 211.69 37.1" height="68.98820874471085" data-palette-color="url(#170348b3-f5a9-41b6-9409-c4c3711f3c13)"><g class="wordmark-text-0" data-fill-palette-color="primary" id="SvgjsG1092"><path d="M7.1 0.2L7.1 0.2Q5.3 0.2 3.85-1.3 2.4-2.8 2.4-6.25L2.4-6.25Q2.4-9.05 3.05-11.75 3.7-14.45 4.53-17.23 5.35-20 5.93-22.98 6.5-25.95 6.3-29.25L6.3-29.25Q4.95-29.05 3.65-28.55 2.35-28.05 1.1-27.1L1.1-27.1Q1.1-30.25 1.65-32.23 2.2-34.2 3.8-35.1 5.4-36 8.55-36L8.55-36Q10.25-36 12.35-35.75 14.45-35.5 16.68-35.25 18.9-35 20.9-35L20.9-35Q22.85-35 24.4-35.38 25.95-35.75 26.8-36.75L26.8-36.75Q27.8-36.1 28.33-34.98 28.85-33.85 28.85-32.55L28.85-32.55Q28.85-31.2 28.23-29.93 27.6-28.65 26.3-27.83 25-27 22.9-27L22.9-27Q20.7-27 18.1-27.7 15.5-28.4 12.75-28.9L12.75-28.9Q13-27.8 13.13-26.7 13.25-25.6 13.25-24.45L13.25-24.45Q13.25-23.2 13.15-21.98 13.05-20.75 12.85-19.45L12.85-19.45Q13.9-20 15.4-20.45 16.9-20.9 18.48-21.2 20.05-21.5 21.3-21.5L21.3-21.5Q22.1-21.5 22.7-21.35L22.7-21.35Q23.2-20.3 23.2-18.8L23.2-18.8Q23.2-16.4 22-13.9L22-13.9 21.65-13.75Q19.8-14.75 17.38-15.3 14.95-15.85 12.3-16.05L12.3-16.05Q11.8-13.2 11.35-10.25 10.9-7.3 10.9-4.2L10.9-4.2Q10.9-3.55 10.93-2.85 10.95-2.15 11-1.45L11-1.45Q9.35 0.2 7.1 0.2ZM34.75 0.2L34.75 0.2Q32.95 0.2 31.55-1.28 30.15-2.75 30.15-5.45L30.15-5.45Q30.15-6.75 30.45-8.4 30.75-10.05 31.15-11.78 31.55-13.5 31.85-15.03 32.15-16.55 32.15-17.55L32.15-17.55Q32.15-18.6 31.77-19.23 31.4-19.85 30.8-19.85L30.8-19.85Q29.85-19.85 28.85-18.55L28.85-18.55 28.55-18.75Q28.5-19.55 28.9-20.65 29.3-21.75 30.15-22.78 31-23.8 32.32-24.5 33.65-25.2 35.45-25.2L35.45-25.2Q38.1-25.2 39.3-23.68 40.5-22.15 40.5-20L40.5-20Q40.5-19.65 40.47-19.28 40.45-18.9 40.4-18.55L40.4-18.55Q42.2-21.8 44.17-23.53 46.15-25.25 47.85-25.25L47.85-25.25Q49.45-25.25 50.2-24 50.95-22.75 50.95-21L50.95-21Q50.95-19.4 50.32-17.75 49.7-16.1 48.47-15.03 47.25-13.95 45.5-14L45.5-14 45.3-14.1Q45.25-15.4 44.45-16.15 43.65-16.9 42.65-16.9L42.65-16.9Q41.3-16.9 40.12-15.55 38.95-14.2 38.95-11.65L38.95-11.65Q38.95-10.1 39.3-8.3 39.65-6.5 39.65-5.25L39.65-5.25Q39.65-3.75 38.95-2.5 38.25-1.25 37.15-0.53 36.05 0.2 34.75 0.2ZM63.2 0.35L63.2 0.35Q59.55 0.35 57.15-1.13 54.75-2.6 53.55-5.03 52.35-7.45 52.35-10.25L52.35-10.25Q52.35-12.9 53.37-15.58 54.4-18.25 56.37-20.45 58.35-22.65 61.17-24 64-25.35 67.55-25.35L67.55-25.35Q71.95-25.35 73.97-23.38 76-21.4 76-18.6L76-18.6Q76-16.2 74.72-14.18 73.45-12.15 71.35-10.93 69.25-9.7 66.75-9.7L66.75-9.7Q65.45-9.7 64.1-10.1 62.75-10.5 61.45-11.35L61.45-11.35Q61.7-8.25 63.25-6.85 64.8-5.45 66.95-5.45L66.95-5.45Q68.45-5.45 69.95-6.03 71.45-6.6 72.72-7.53 74-8.45 74.7-9.5L74.7-9.5 75.05-9.25Q75.05-6.65 73.97-4.83 72.9-3 71.15-1.85 69.4-0.7 67.32-0.18 65.25 0.35 63.2 0.35ZM64.35-13.15L64.35-13.15Q65.95-13.15 66.95-14.08 67.95-15 68.45-16.25 68.95-17.5 68.95-18.45L68.95-18.45Q68.95-19.6 68.3-20.38 67.65-21.15 66.5-21.15L66.5-21.15Q65.6-21.15 64.52-20.5 63.45-19.85 62.6-18.28 61.75-16.7 61.5-13.9L61.5-13.9Q63.1-13.15 64.35-13.15ZM89.24 0.35L89.24 0.35Q85.59 0.35 83.19-1.13 80.79-2.6 79.59-5.03 78.39-7.45 78.39-10.25L78.39-10.25Q78.39-12.9 79.42-15.58 80.44-18.25 82.42-20.45 84.39-22.65 87.22-24 90.04-25.35 93.59-25.35L93.59-25.35Q97.99-25.35 100.02-23.38 102.04-21.4 102.04-18.6L102.04-18.6Q102.04-16.2 100.77-14.18 99.49-12.15 97.39-10.93 95.29-9.7 92.79-9.7L92.79-9.7Q91.49-9.7 90.14-10.1 88.79-10.5 87.49-11.35L87.49-11.35Q87.74-8.25 89.29-6.85 90.84-5.45 92.99-5.45L92.99-5.45Q94.49-5.45 95.99-6.03 97.49-6.6 98.77-7.53 100.04-8.45 100.74-9.5L100.74-9.5 101.09-9.25Q101.09-6.65 100.02-4.83 98.94-3 97.19-1.85 95.44-0.7 93.37-0.18 91.29 0.35 89.24 0.35ZM90.39-13.15L90.39-13.15Q91.99-13.15 92.99-14.08 93.99-15 94.49-16.25 94.99-17.5 94.99-18.45L94.99-18.45Q94.99-19.6 94.34-20.38 93.69-21.15 92.54-21.15L92.54-21.15Q91.64-21.15 90.57-20.5 89.49-19.85 88.64-18.28 87.79-16.7 87.54-13.9L87.54-13.9Q89.14-13.15 90.39-13.15ZM117.69 0.2L117.69 0.2Q115.69 0.2 114.04-0.68 112.39-1.55 111.34-3.25L111.34-3.25Q111.29-2.3 110.64-1.5 109.99-0.7 108.19-0.7L108.19-0.7Q106.19-0.7 105.24-1.8 104.29-2.9 104.29-4.7L104.29-4.7Q104.29-5.8 104.59-7.88 104.89-9.95 105.32-12.55 105.74-15.15 106.17-17.95 106.59-20.75 106.89-23.4 107.19-26.05 107.19-28.15L107.19-28.15Q107.19-29.55 107.04-30.6 106.89-31.65 106.49-32.25L106.49-32.25 106.49-32.55Q107.64-33.8 108.89-34.43 110.14-35.05 111.29-35.05L111.29-35.05Q112.99-35.05 114.19-33.7 115.39-32.35 115.39-29.4L115.39-29.4Q115.39-27.95 115.09-25.33 114.79-22.7 114.34-20.1L114.34-20.1Q116.14-22.65 118.17-24 120.19-25.35 122.09-25.35L122.09-25.35Q124.64-25.35 126.44-22.93 128.24-20.5 128.24-15.6L128.24-15.6Q128.24-12.7 127.57-9.88 126.89-7.05 125.54-4.78 124.19-2.5 122.22-1.15 120.24 0.2 117.69 0.2ZM115.19-4.85L115.19-4.85Q116.79-4.85 117.92-6.25 119.04-7.65 119.62-9.83 120.19-12 120.19-14.3L120.19-14.3Q120.19-15.8 119.94-17.18 119.69-18.55 119.19-19.43 118.69-20.3 117.89-20.3L117.89-20.3Q116.49-20.3 114.72-17.03 112.94-13.75 111.94-7.75L111.94-7.75Q112.84-4.85 115.19-4.85ZM140.39-26.75L140.39-26.75Q138.39-26.75 137.11-27.98 135.84-29.2 135.84-31.05L135.84-31.05Q135.84-33.05 137.34-34.5 138.84-35.95 140.99-35.95L140.99-35.95Q142.99-35.95 144.26-34.7 145.54-33.45 145.54-31.6L145.54-31.6Q145.54-29.6 144.04-28.18 142.54-26.75 140.39-26.75ZM136.89 0.2L136.89 0.2Q134.94 0.2 133.39-1.18 131.84-2.55 131.84-5.6L131.84-5.6Q131.84-7.35 132.31-8.88 132.79-10.4 133.41-11.85 134.04-13.3 134.51-14.68 134.99-16.05 134.99-17.4L134.99-17.4Q134.99-18.6 134.59-19.13 134.19-19.65 133.64-19.65L133.64-19.65Q132.79-19.65 131.99-18.55L131.99-18.55 131.64-18.75Q131.84-20.75 132.91-22.18 133.99-23.6 135.56-24.4 137.14-25.2 138.69-25.2L138.69-25.2Q140.59-25.2 141.99-23.98 143.39-22.75 143.39-20L143.39-20Q143.39-18.35 142.91-16.53 142.44-14.7 141.81-12.9 141.19-11.1 140.71-9.55 140.24-8 140.24-6.9L140.24-6.9Q140.24-5.95 140.61-5.55 140.99-5.15 141.44-5.15L141.44-5.15Q141.89-5.15 142.31-5.43 142.74-5.7 142.94-6.05L142.94-6.05 143.29-5.95Q143.29-4.1 142.31-2.73 141.34-1.35 139.89-0.58 138.44 0.2 136.89 0.2ZM157.99 0.35L157.99 0.35Q154.34 0.35 151.94-1.13 149.54-2.6 148.34-5.03 147.14-7.45 147.14-10.25L147.14-10.25Q147.14-12.9 148.16-15.58 149.19-18.25 151.16-20.45 153.14-22.65 155.96-24 158.79-25.35 162.34-25.35L162.34-25.35Q166.74-25.35 168.76-23.38 170.79-21.4 170.79-18.6L170.79-18.6Q170.79-16.2 169.51-14.18 168.24-12.15 166.14-10.93 164.04-9.7 161.54-9.7L161.54-9.7Q160.24-9.7 158.89-10.1 157.54-10.5 156.24-11.35L156.24-11.35Q156.49-8.25 158.04-6.85 159.59-5.45 161.74-5.45L161.74-5.45Q163.24-5.45 164.74-6.03 166.24-6.6 167.51-7.53 168.79-8.45 169.49-9.5L169.49-9.5 169.84-9.25Q169.84-6.65 168.76-4.83 167.69-3 165.94-1.85 164.19-0.7 162.11-0.18 160.04 0.35 157.99 0.35ZM159.14-13.15L159.14-13.15Q160.74-13.15 161.74-14.08 162.74-15 163.24-16.25 163.74-17.5 163.74-18.45L163.74-18.45Q163.74-19.6 163.09-20.38 162.44-21.15 161.29-21.15L161.29-21.15Q160.39-21.15 159.31-20.5 158.24-19.85 157.39-18.28 156.54-16.7 156.29-13.9L156.29-13.9Q157.89-13.15 159.14-13.15Z" fill="black"></path><path d="M184.84 0.25L184.84 0.25Q183.44 0.25 182.36-0.93 181.29-2.1 181.29-5.3L181.29-5.3Q181.29-5.85 181.31-6.28 181.34-6.7 181.34-6.9L181.34-6.9Q181.54-8.9 181.91-11.88 182.29-14.85 182.79-18.13 183.29-21.4 183.81-24.45 184.34-27.5 184.79-29.78 185.24-32.05 185.54-32.9L185.54-32.9Q186.09-34.4 187.51-35.27 188.94-36.15 190.44-36.15L190.44-36.15Q191.74-36.15 192.81-35.4 193.89-34.65 194.29-32.85L194.29-32.85Q193.99-31.85 193.34-29.33 192.69-26.8 191.94-23.15 191.19-19.5 190.51-15.1 189.84-10.7 189.44-5.9L189.44-5.9Q189.39-5.05 189.29-3.93 189.19-2.8 189.14-1.65L189.14-1.65Q188.54-1 187.34-0.38 186.14 0.25 184.84 0.25ZM204.13 0.2L204.13 0.2Q202.54 0.2 201.11-0.53 199.69-1.25 198.81-2.8 197.94-4.35 197.94-6.75L197.94-6.75Q197.94-8.05 198.19-10.15 198.44-12.25 198.86-14.75 199.29-17.25 199.74-19.75L199.74-19.75Q198.74-19.7 197.81-19.55 196.89-19.4 195.99-19.2L195.99-19.2 195.89-19.55Q196.89-20.75 197.99-21.6 199.09-22.45 200.29-23L200.29-23Q200.94-26.3 201.39-28.73 201.84-31.15 201.84-31.6L201.84-31.6Q201.84-32.45 203.16-33 204.49-33.55 206.13-33.55L206.13-33.55Q207.59-33.55 208.86-33 210.13-32.45 210.59-31.15L210.59-31.15Q210.29-30.85 209.74-28.93 209.19-27 208.59-24.25L208.59-24.25Q209.54-24.2 210.54-24.15 211.54-24.1 212.59-24L212.59-24Q212.69-23.7 212.74-23.35 212.79-23 212.79-22.6L212.79-22.6Q212.79-21.85 212.56-20.98 212.34-20.1 212.04-19.4L212.04-19.4Q210.84-19.5 209.79-19.63 208.74-19.75 207.74-19.8L207.74-19.8Q207.34-17.65 207.01-15.5 206.69-13.35 206.51-11.6 206.34-9.85 206.34-8.85L206.34-8.85Q206.34-6.75 207.11-6.05 207.88-5.35 208.99-5.35L208.99-5.35Q209.99-5.35 210.79-5.75 211.59-6.15 211.94-6.7L211.94-6.7 212.44-6.55Q212.13-4.5 210.84-2.98 209.54-1.45 207.74-0.63 205.94 0.2 204.13 0.2Z" fill="black"></path></g></svg></g></svg></g></svg></g></svg></g><g><svg viewBox="0 0 157.44793070416063 180.61113049365298" height="180.61113049365298" width="157.44793070416063"><g><svg xmlns="http://www.w3.org/2000/svg" xmlns:xlink="http://www.w3.org/1999/xlink" version="1.1" x="0" y="0" viewBox="7.203 0.9081454089562165 85.59100008806261 98.18285459104378" enable-background="new 0 0 100 100" xml:space="preserve" height="180.61113049365298" width="157.44793070416063" class="icon-icon-0" data-fill-palette-color="accent" id="SvgjsSvg1091"><g fill="black"><path d="M84.279 44.348V58.749C84.279 61.081 83.689 63.491 81.834 65.653 79.908 67.897 71.549 73.11 68.559 74.878 66.508 76.089 65.057 73.505 66.545 72.369 68.076 71.2 76.147 66.193 78.668 64.462 83.293 61.283 78.844 54.314 73.213 57.61 70.777 59.036 68.172 60.471 62.859 63.567 57.744 66.546 54.338 70.355 53.304 80.413 52.79 85.419 55.835 99.091 55.835 99.091H73.021C73.021 87.134 87.07 77.218 90.392 71.177 92.496 67.351 92.794 65.747 92.794 62.408V44.348C92.795 37.778 84.279 37.922 84.279 44.348" fill="black"></path><path d="M37.139 63.567C31.826 60.472 29.222 59.037 26.785 57.61 21.154 54.312 16.705 61.283 21.329 64.461 23.851 66.194 31.921 71.199 33.453 72.368 34.94 73.504 33.49 76.088 31.44 74.877 28.45 73.11 20.089 67.898 18.163 65.654 16.308 63.492 15.719 61.081 15.719 58.748V44.348C15.719 37.922 7.203 37.778 7.203 44.348V62.407C7.203 65.748 7.502 67.35 9.605 71.177 12.926 77.219 26.977 87.135 26.977 99.09L44.162 99.091S47.206 85.419 46.692 80.413C45.66 70.355 42.254 66.547 37.139 63.567" fill="black"></path><path d="M21.378 44.062C21.378 45.597 22.302 47.371 23.479 48.104L46.78 61.644V37.288L21.378 22.666z" fill="black"></path><path d="M53.246 61.645L76.547 48.105C77.725 47.372 78.649 45.598 78.649 44.063V22.666L53.246 37.288z" fill="black"></path><path d="M52.263 1.342C51.037 0.692 49.04 0.781 47.712 1.551L22.572 15.81 50.013 31.603 77.4 15.843z" fill="black"></path></g></svg></g></svg></g></svg></g><defs><mask></mask></defs></svg><rect width="395.52" height="125.48926359329984" fill="black" stroke="none" visibility="hidden"></rect></g></mask></svg><rect width="395.52" height="125.48926359329984" fill="black" stroke="none" visibility="hidden"></rect></g></mask><linearGradient x1="0" x2="1" y1="0.548" y2="0.55" id="d4038675-1a2c-48e6-8242-a451795ad4eb"><stop stop-color="#ff6cab" offset="0"></stop><stop stop-color="#7366ff" offset="1"></stop></linearGradient><rect width="395.52" height="125.48926359329984" fill="url(#d4038675-1a2c-48e6-8242-a451795ad4eb)" mask="url(#12d14c86-071b-4db4-bb70-48ab4e58091b)" data-fill-palette-color="accent"></rect></svg><rect width="395.52" height="125.48926359329984" fill="none" stroke="none" visibility="hidden"></rect></g></svg></g></svg>